<svg version="1.1" id="Layer_1" xmlns="http://www.w3.org/2000/svg" xmlns:xlink="http://www.w3.org/1999/xlink" x="0px" y="0px"
	 width="100%" viewBox="0 0 1024 1024" enable-background="new 0 0 1024 1024" xml:space="preserve">
<path fill="#000000" opacity="1.000000" stroke="none" 
	d="
M671.223877,722.319702 
	C682.529602,703.939453 690.954041,684.661926 696.195984,664.115479 
	C698.777832,653.995850 700.020874,643.581543 699.605835,633.060608 
	C699.453247,629.192993 697.826050,626.605591 693.914856,625.226257 
	C682.508301,621.203613 673.828064,613.400208 665.675110,604.740417 
	C656.934265,595.456177 651.006287,584.675354 648.704285,572.296448 
	C646.771729,561.903748 646.174072,551.336365 648.832581,540.748901 
	C651.086609,531.772156 652.494995,522.593567 652.701599,513.266174 
	C652.791870,509.194794 650.415710,505.724365 650.688293,501.544281 
	C651.197998,493.725403 655.527405,490.785339 662.571899,493.761261 
	C670.149292,496.962341 677.156738,501.049622 683.100403,506.711365 
	C688.779419,512.121033 689.537659,519.476685 688.864380,526.583740 
	C687.378296,542.269104 686.505737,557.903503 688.462280,573.589050 
	C688.922424,577.277771 690.464722,580.112000 693.019165,582.132690 
	C694.330200,579.537170 694.107239,576.737061 693.537720,574.350403 
	C691.651978,566.448303 691.853821,558.223389 692.455017,550.525208 
	C693.652771,535.188721 696.816772,519.917786 704.937378,506.362518 
	C708.675354,500.122925 712.364685,493.700867 717.100159,488.251373 
	C722.874756,481.605927 728.851074,474.921875 736.683655,470.418427 
	C742.403381,467.129852 748.950256,468.167969 751.786377,473.968079 
	C757.192322,485.023529 764.153320,495.252808 767.249756,507.578766 
	C769.682861,517.264099 769.463684,526.929993 770.056824,536.599487 
	C770.459412,543.161499 770.226868,549.839172 769.351257,556.470276 
	C768.782959,560.774414 765.662781,564.217468 765.587524,569.210388 
	C769.621582,567.581177 770.190796,564.235840 770.899170,561.230225 
	C772.582214,554.088989 774.350342,546.938049 775.427856,539.693359 
	C776.307800,533.776978 780.318542,530.218872 784.395874,527.192932 
	C792.437378,521.225098 801.276672,516.550476 811.576355,515.539978 
	C812.515198,515.447937 813.378906,514.737488 814.311584,514.411926 
	C819.534241,512.588989 824.825195,516.083374 824.832092,521.532471 
	C824.835266,524.002808 824.841736,526.739319 823.851868,528.899231 
	C819.170959,539.113098 817.841614,550.198303 815.608521,560.966309 
	C812.067078,578.043091 804.301636,592.833496 792.488342,605.163086 
	C783.639282,614.398804 772.198120,620.433289 760.293030,625.300537 
	C753.973450,627.884277 746.979126,627.900818 740.707031,630.790344 
	C737.842896,632.109802 734.458984,631.642883 731.328125,631.120056 
	C726.880005,630.377319 724.003357,632.807678 722.828430,636.378357 
	C717.495667,652.584167 711.664917,668.593689 705.419861,684.468811 
	C702.490112,691.916443 698.698914,698.898376 695.075134,705.985352 
	C694.494934,707.120056 693.355713,708.068176 693.822083,709.814209 
	C696.192139,710.495728 696.855103,708.308411 697.910950,707.113037 
	C710.389099,692.984375 725.269104,682.472839 742.710876,675.066406 
	C752.741394,670.807129 762.788208,669.998169 773.298584,670.265320 
	C777.260071,670.366028 781.347168,670.265381 785.181885,669.395996 
	C789.859741,668.335449 791.815491,670.970764 793.016724,674.350281 
	C794.289001,677.929871 792.496155,680.055847 788.872375,681.496948 
	C783.555054,683.611450 778.245300,685.266846 772.487854,685.312744 
	C771.687378,685.319092 770.735779,685.468628 770.114685,685.914673 
	C764.011780,690.298157 757.182861,693.408813 751.554138,698.775208 
	C744.588867,705.416016 738.351624,712.882141 730.237366,718.430664 
	C727.200623,720.507080 723.772949,723.030518 721.966919,726.767151 
	C721.554077,727.621399 720.762817,728.733032 719.974121,728.896179 
	C713.294312,730.277466 709.790588,736.163086 704.544434,739.538147 
	C695.389465,745.427917 686.059998,750.950500 675.320679,753.595520 
	C669.670715,754.987061 664.959412,758.073669 661.495850,762.738464 
	C658.902344,766.231506 655.081543,768.254028 652.230713,771.569458 
	C638.130066,787.968201 621.846619,801.894836 604.187378,814.499573 
	C592.820435,822.612976 580.826416,829.550110 569.031677,836.873962 
	C565.311340,839.184021 560.995789,840.621216 556.823547,842.091675 
	C553.238647,843.355103 550.734253,841.984741 548.649292,838.555664 
	C542.094788,827.775696 534.971436,817.421021 527.269043,807.349915 
	C519.366821,797.017578 509.623901,789.080383 499.948486,780.830750 
	C482.035858,765.557739 462.340363,752.713806 443.040161,739.360718 
	C438.725220,736.375427 434.173035,733.461853 428.934113,731.405334 
	C423.950897,729.449219 419.763062,724.618774 414.886047,721.440796 
	C408.116241,717.029358 400.877930,712.902649 395.277924,707.233765 
	C387.249115,699.106140 377.060516,694.032654 368.789917,686.221985 
	C359.113861,677.083984 347.504639,670.012573 337.639648,661.048096 
	C331.131958,655.134460 326.002319,647.629028 320.643616,640.542908 
	C311.281708,628.163147 307.485901,614.300476 310.743896,598.864258 
	C311.188354,596.758545 311.682861,594.570007 312.666412,592.687500 
	C317.082214,584.235901 321.466095,575.792908 328.054871,568.667358 
	C338.936432,556.899414 349.718719,545.025391 362.538727,535.312988 
	C367.269501,531.728882 372.593903,528.910400 377.734192,525.890137 
	C382.434113,523.128601 382.727386,522.431580 379.408508,517.986511 
	C371.971924,508.026245 365.058014,497.704041 359.223846,486.747192 
	C352.232605,473.617249 350.909729,459.173645 351.426270,444.650116 
	C351.760620,435.249573 350.727203,433.530518 341.094574,433.340942 
	C324.896729,433.022186 308.686737,432.970764 292.505646,432.262726 
	C280.008514,431.715912 270.646515,425.959930 266.101868,413.708099 
	C265.119019,411.058502 263.954559,408.473846 263.033295,405.804199 
	C259.957672,396.891632 262.948181,385.947845 276.277252,387.035065 
	C283.163818,387.596741 289.749786,386.130371 296.513580,386.104858 
	C305.354767,386.071503 314.266693,385.993927 323.129883,385.833374 
	C335.927521,385.601501 348.635437,384.691071 361.183411,382.491608 
	C375.917664,379.908966 390.401001,376.430054 404.675415,371.525909 
	C423.584961,365.029266 438.476196,353.596954 450.409760,338.258789 
	C458.423340,327.959015 462.894989,315.912811 463.650665,302.476685 
	C464.150757,293.584747 463.469513,284.818268 462.472168,276.112305 
	C461.419403,266.922394 455.320099,259.823395 450.394043,252.331482 
	C439.876343,236.335449 423.764008,230.990097 405.959290,228.298569 
	C399.839233,227.373398 394.493774,228.607971 389.083405,230.825012 
	C379.594330,234.713425 371.136414,240.360687 364.925140,248.406509 
	C361.717896,252.561020 358.537231,257.033234 355.604523,261.475128 
	C352.411926,266.310608 351.752197,271.514862 349.729370,276.419495 
	C345.465546,286.757904 350.286316,300.886414 359.632843,307.285126 
	C361.247742,308.390686 363.069885,309.267731 363.988678,311.255615 
	C365.465393,314.450592 368.556458,315.967377 371.613617,316.269073 
	C377.701080,316.869843 383.930725,317.658173 389.928253,315.546722 
	C394.069061,314.088959 398.375000,313.753052 402.665466,313.403687 
	C406.676300,313.077087 408.740112,316.109253 406.461914,319.502502 
	C401.774536,326.484192 396.777191,333.160492 388.952972,337.322266 
	C383.280640,340.339417 377.585693,343.440704 372.088593,346.628693 
	C365.701569,350.332764 359.064606,349.911987 352.641083,350.892456 
	C338.775574,353.008850 325.490814,349.932892 313.519501,342.517120 
	C305.336334,337.447906 298.169464,331.239105 293.271973,322.601135 
	C289.589294,316.105804 285.870209,309.739349 282.904907,302.801514 
	C275.453857,285.368805 275.958649,267.648682 282.173706,250.649582 
	C286.434662,238.995224 291.114899,226.762909 299.384979,217.204605 
	C309.742706,205.233459 320.887421,193.842163 335.152802,186.102936 
	C340.921722,182.973175 346.208649,179.050659 352.461029,176.687408 
	C369.455811,170.263794 386.603943,165.141586 405.133636,167.119278 
	C412.497925,167.905258 419.914337,168.220444 427.311737,168.672394 
	C432.353271,168.980392 436.701385,171.613220 441.466187,172.902740 
	C458.995728,177.646805 474.693329,186.613083 488.341095,198.325897 
	C499.313477,207.742645 509.064880,218.446045 515.893921,231.830887 
	C519.625061,239.143921 524.096802,246.269989 527.281921,253.843552 
	C531.233582,263.239777 533.691284,273.118408 533.541443,283.628113 
	C533.452698,289.855530 534.345337,296.139526 534.437561,302.436493 
	C534.492554,306.188904 533.078003,309.546661 532.446411,313.066345 
	C530.833069,322.056732 528.810120,330.890961 525.432495,339.611572 
	C520.107117,353.361176 510.494293,363.416718 500.876801,373.751953 
	C498.782623,376.002380 496.033081,377.835571 495.589600,381.812408 
	C500.310852,383.535065 505.143951,382.569305 509.823639,382.668121 
	C523.209167,382.950867 536.592834,382.227386 549.993408,382.652618 
	C555.969482,382.842255 561.873230,382.629242 567.778809,384.046844 
	C570.559570,384.714325 573.346558,382.967407 576.452271,383.016266 
	C593.778198,383.288544 611.100220,384.279572 628.454895,383.026489 
	C638.335022,382.313080 648.304810,382.763123 658.233398,382.822662 
	C665.671143,382.867249 671.542969,386.660980 676.837158,391.358673 
	C683.189941,396.995758 688.097839,403.985229 693.870667,410.145386 
	C696.877075,413.353424 698.305908,417.375153 701.089661,420.624023 
	C702.654114,422.449921 703.480530,425.531555 701.704956,427.461700 
	C699.413025,429.953003 696.388306,432.333527 692.660339,431.865265 
	C674.854675,429.628754 657.028320,431.705750 639.216309,431.461395 
	C634.821167,431.401123 630.506897,429.459229 625.967529,431.285187 
	C623.519104,432.270050 622.177063,433.035797 621.177368,435.975342 
	C618.257751,444.560822 620.785950,453.127319 620.220642,461.666595 
	C619.355042,474.740723 618.760437,487.851776 618.667358,500.951538 
	C618.604126,509.847290 620.492798,518.814148 619.867310,527.632751 
	C619.229492,536.625122 619.466980,545.539795 619.863464,554.452026 
	C620.167053,561.276001 619.304077,568.011475 619.484436,574.828125 
	C620.060486,596.602112 620.837585,618.418213 620.050171,640.164185 
	C619.532654,654.453552 621.014648,668.675842 619.838867,682.987061 
	C618.730713,696.476501 618.305603,710.207886 619.595703,723.639282 
	C620.382141,731.827026 618.605591,739.741821 619.613525,747.851807 
	C620.544617,755.344055 614.738647,759.056580 608.638916,754.983337 
	C595.902832,746.478333 583.527405,737.115784 575.329651,723.999817 
	C569.007202,713.884277 565.055908,702.526245 564.642944,690.150085 
	C564.395813,682.743225 563.845154,675.305420 563.178162,667.893188 
	C562.684753,662.408875 563.223572,656.707520 562.807739,651.101501 
	C561.727600,636.543823 561.623474,621.946106 561.725403,607.370850 
	C561.785583,598.766418 562.058960,590.119019 562.150452,581.523743 
	C562.285583,568.828491 562.009155,556.064148 562.187683,543.390991 
	C562.388672,529.119934 562.503723,514.828491 562.562744,500.555176 
	C562.638000,482.327240 562.328430,464.079834 561.480469,445.873627 
	C561.067627,437.010284 557.618652,430.552277 546.863403,431.288971 
	C528.684143,432.534241 510.472290,430.733185 492.254974,431.213104 
	C486.623505,431.361481 480.709351,430.173462 475.121277,430.671295 
	C461.682343,431.868469 448.072235,429.858276 434.769531,432.976105 
	C434.283813,433.089935 433.803192,433.236969 433.311584,433.312103 
	C430.283691,433.774872 426.774475,432.494385 424.315430,434.960602 
	C420.650848,438.635803 419.109711,443.553680 418.462433,448.488037 
	C416.783783,461.284851 421.406189,472.525665 427.887299,483.191345 
	C429.944244,486.576385 431.800446,490.061096 434.188080,493.269867 
	C437.474823,497.687012 439.100128,498.405975 443.565094,495.580750 
	C446.639587,493.635315 449.823334,491.890717 452.792511,489.711517 
	C460.842407,483.803436 483.254150,482.189667 493.831879,488.276733 
	C505.084595,494.752197 513.955139,502.852386 520.031555,514.067749 
	C528.050110,528.867859 530.565552,544.772339 527.167603,561.192749 
	C523.432373,579.243103 515.419250,595.168579 503.302277,609.445129 
	C492.696228,621.941528 481.227570,633.791809 471.992584,647.444275 
	C470.579010,649.534119 469.462769,651.663818 468.667633,654.083862 
	C466.730743,659.979065 463.620270,661.325439 458.138306,658.727295 
	C446.375092,653.152222 439.719238,643.397278 436.914978,631.098816 
	C435.541077,625.073425 438.915436,619.860901 442.114624,614.891602 
	C447.557983,606.436584 455.092010,599.771790 461.482910,592.127625 
	C467.807220,584.563049 473.491943,576.747925 475.276764,566.785583 
	C476.707520,558.799377 475.756042,551.513794 468.708740,546.193481 
	C465.905853,544.077515 463.484558,543.901917 460.102997,545.827271 
	C454.425018,549.060181 449.028900,552.280029 445.476440,558.017334 
	C444.510803,559.576843 443.538147,560.966370 443.068878,562.818726 
	C441.515564,568.950378 436.012451,571.413513 430.409760,568.656189 
	C424.617523,565.805603 418.754211,563.084595 413.080750,560.013550 
	C410.175690,558.441101 407.473236,558.481323 404.451630,559.287292 
	C392.843048,562.383728 385.976135,571.907898 382.432800,583.139038 
	C379.276489,593.143616 380.238251,602.069275 383.303711,611.189697 
	C387.287567,623.042542 395.073914,632.441833 403.822815,641.243835 
	C410.606812,648.068970 418.694000,653.325012 425.366241,660.275818 
	C428.394653,663.430725 432.519409,665.527283 436.116547,668.145447 
	C437.316803,669.019104 438.604034,669.870300 439.543060,670.990356 
	C446.531738,679.326416 455.341705,685.794250 463.664795,692.480225 
	C472.348785,699.456116 480.950989,706.478394 488.392548,714.630310 
	C496.770477,723.807983 506.514984,731.629822 514.263062,741.383911 
	C527.267639,757.755554 539.787048,774.406250 549.242188,793.228699 
	C553.578125,801.860046 557.513184,810.615540 560.864258,819.630981 
	C562.495300,824.018982 564.901428,824.471436 568.482422,822.368530 
	C585.674011,812.272949 602.012817,800.833862 617.112793,787.924316 
	C627.386108,779.141418 636.229736,768.704712 644.934937,758.179260 
	C652.756836,748.721863 658.873291,738.009033 667.364319,729.098022 
	C669.020935,727.359497 669.798157,724.782959 671.223877,722.319702 
z"/>
</svg>